<?xml version="1.0" encoding="UTF-8" standalone="no"?>
<svg width="166px" height="21px" viewBox="0 0 166 21" version="1.1" xmlns="http://www.w3.org/2000/svg" xmlns:xlink="http://www.w3.org/1999/xlink">
    <defs>
        <path d="M88.25,7.41411498 L82.4984897,18.5337016 C81.9275921,19.6374369 80.5700338,20.0693873 79.4662984,19.4984897 C78.3625631,18.9275921 77.9306127,17.5700338 78.5015103,16.4662984 L86.0015103,1.96629843 C86.4419992,1.11468654 87.3508062,0.663004504 88.25,0.763321362 C89.1491938,0.663004504 90.0580008,1.11468654 90.4984897,1.96629843 L97.9984897,16.4662984 C98.5693873,17.5700338 98.1374369,18.9275921 97.0337016,19.4984897 C95.9299662,20.0693873 94.5724079,19.6374369 94.0015103,18.5337016 L88.25,7.41411498 Z" id="path-1"></path>
    </defs>
    <g id="@Style-Guide" stroke="none" stroke-width="1" fill="none" fill-rule="evenodd">
        <g id="STYLE-GUIDE" transform="translate(-248.000000, -667.000000)">
            <g id="Logo" transform="translate(248.000000, 667.000000)">
                <g id="Line">
                    <use fill="#FF4D55" fill-rule="evenodd" xlink:href="#path-1"></use>
                    <use fill="none" xlink:href="#path-1"></use>
                </g>
                <path d="M118.714,14.39 C118.714,12.18 117.466,10.646 115.698,9.996 C117.258,9.424 118.428,7.89 118.428,5.94 C118.428,2.846 116.192,1 112.968,1 L106,1 L106,19.512 L113.202,19.512 C116.478,19.512 118.714,17.744 118.714,14.39 L118.714,14.39 Z M116.738,14.338 C116.738,16.418 115.308,17.744 113.02,17.744 L107.976,17.744 L107.976,10.958 L113.02,10.958 C115.308,10.958 116.738,12.258 116.738,14.338 L116.738,14.338 Z M116.452,5.966 C116.452,8.176 114.866,9.19 112.812,9.19 L107.976,9.19 L107.976,2.768 L112.812,2.768 C114.866,2.768 116.452,3.756 116.452,5.966 L116.452,5.966 Z M142.808,19.512 L142.808,17.744 L133.344,17.744 L133.344,1 L131.368,1 L131.368,19.512 L142.808,19.512 Z M165.758,19.512 L165.758,17.744 L156.242,17.744 L156.242,11.062 L164.354,11.062 L164.354,9.294 L156.242,9.294 L156.242,2.768 L165.758,2.768 L165.758,1 L154.266,1 L154.266,19.512 L165.758,19.512 Z" id="BLE" fill="#484848"></path>
                <path d="M11.44,19.668 L11.44,17.9 L1.976,17.9 L1.976,1.156 L0,1.156 L0,19.668 L11.44,19.668 Z M24.874,19.668 L24.874,1.156 L22.898,1.156 L22.898,19.668 L24.874,19.668 Z M49.384,14.572 C49.384,13.038 48.838,11.764 47.824,10.906 C47.044,10.23 46.186,9.866 44.444,9.606 L42.416,9.294 C41.454,9.138 40.492,8.774 39.92,8.28 C39.348,7.786 39.088,7.058 39.088,6.148 C39.088,4.094 40.518,2.716 42.988,2.716 C44.938,2.716 46.16,3.262 47.304,4.302 L48.578,3.028 C46.992,1.598 45.432,1 43.066,1 C39.4,1 37.138,3.08 37.138,6.226 C37.138,7.708 37.606,8.852 38.542,9.684 C39.348,10.386 40.492,10.854 41.948,11.088 L44.106,11.426 C45.458,11.634 45.926,11.79 46.524,12.31 C47.122,12.83 47.408,13.662 47.408,14.624 C47.408,16.782 45.744,18.056 43.04,18.056 C40.96,18.056 39.53,17.562 37.996,16.028 L36.644,17.38 C38.386,19.122 40.206,19.824 42.988,19.824 C46.836,19.824 49.384,17.822 49.384,14.572 L49.384,14.572 Z M72.308,2.924 L72.308,1.156 L59.62,1.156 L59.62,2.924 L64.976,2.924 L64.976,19.668 L66.952,19.668 L66.952,2.924 L72.308,2.924 Z" id="LIST" fill="#484848"></path>
            </g>
        </g>
    </g>
</svg>