<?xml version="1.0" encoding="UTF-8" standalone="no"?>
<svg width="21px" height="20px" viewBox="0 0 21 20" version="1.1" xmlns="http://www.w3.org/2000/svg" xmlns:xlink="http://www.w3.org/1999/xlink">
    <defs></defs>
    <g id="Search-Menu" stroke="none" stroke-width="1" fill="none" fill-rule="evenodd">
        <g id="Search-Menu---Front-Page" transform="translate(-474.000000, -545.000000)" fill="#000000">
            <path d="M494.552763,549.144399 L494.552763,547.589861 L494.552763,547.563952 C494.501291,547.020209 494.13822,546.657138 493.62004,546.606011 L493.594477,546.606011 L490.4854,546.606011 L490.4854,545.906814 C490.4854,545.414544 490.071202,545 489.578586,545 L478.696817,545 C478.204201,545 477.790003,545.414544 477.790003,545.906814 L477.790003,546.606011 L474.964198,546.606011 L474.938634,546.606011 C474.420455,546.631574 474.057384,547.020209 474.006257,547.563952 L474.006257,547.589861 L474.006257,549.144399 C473.980693,549.558597 473.851148,553.574488 478.151692,554.247776 C478.82498,556.139822 480.379519,557.641506 482.348255,558.21254 L482.348255,560.777528 L478.928962,562.409103 C478.928962,562.409103 478.903398,562.409103 478.903398,562.434666 C478.410782,562.719319 478.151692,563.133863 478.151692,563.60057 L478.151692,564.118749 L478.151692,564.144313 C478.202819,564.662492 478.56589,565 479.109633,565 L489.188569,565 C489.732312,565 490.120947,564.662492 490.146856,564.144313 L490.146856,564.118749 L490.146856,563.60057 C490.146856,563.133863 489.887766,562.719319 489.39515,562.434666 L489.369587,562.409103 L486.00142,560.803437 L486.00142,558.185249 C487.893121,557.615943 489.420714,556.13844 490.120947,554.27334 C491.57185,554.092668 492.686281,553.547543 493.46355,552.640729 C494.655017,551.217117 494.552763,549.403489 494.552763,549.144399 L494.552763,549.144399 Z M477.892603,553.236981 C474.705108,552.485275 474.938634,549.376198 474.964198,549.22109 L474.964198,549.169963 L474.964198,547.615424 L474.964198,547.563952 L474.990107,547.563952 L477.788621,547.563952 L477.788621,552.123931 C477.788621,552.304603 477.788621,552.461093 477.814185,552.642111 L477.814185,552.693238 C477.841476,552.87391 477.867039,553.030745 477.892603,553.236981 C477.892603,553.211417 477.892603,553.211417 477.892603,553.236981 L477.892603,553.236981 Z M489.188569,563.575006 L489.188569,564.014768 L489.188569,564.014768 L479.08407,564.014768 L479.08407,564.014768 L479.08407,563.575006 C479.08407,563.445462 479.239178,563.315917 479.34316,563.26479 L482.866435,561.60627 L485.406205,561.60627 L488.92948,563.26479 C489.033461,563.315917 489.188569,563.445462 489.188569,563.575006 L489.188569,563.575006 Z M485.01757,558.47163 L485.01757,560.647983 L483.307923,560.647983 L483.307923,558.47163 L485.01757,558.47163 Z M484.13632,557.511961 C481.700531,557.511961 479.653722,555.906296 478.980089,553.704033 L478.980089,553.704033 C478.954525,553.574488 478.902016,553.444943 478.876453,553.315399 L478.876453,553.315399 C478.82498,553.081872 478.798035,552.822783 478.772471,552.589256 L478.772471,552.511184 C478.772471,552.381639 478.746908,552.277658 478.746908,552.148113 L478.746908,545.956905 L489.499132,545.956905 L489.499132,552.09664 C489.499132,552.226185 489.499132,552.330167 489.473223,552.459712 L489.473223,552.538129 C489.473223,552.642111 489.447659,552.771656 489.447659,552.875291 L489.447659,552.9012 C489.422096,553.030745 489.396532,553.134381 489.369587,553.263926 C489.369587,553.289835 489.369587,553.315399 489.343678,553.342344 C489.318114,553.446325 489.292551,553.549961 489.265605,553.652561 C488.619263,555.880732 486.546545,557.511961 484.13632,557.511961 L484.13632,557.511961 Z M492.711844,552.045513 C492.168101,552.693238 491.390832,553.107436 490.380037,553.289835 L490.380037,553.263926 C490.405946,553.083254 490.431509,552.926764 490.458455,552.745747 L490.458455,552.69462 C490.484018,552.513602 490.484018,552.331548 490.484018,552.150877 L490.484018,547.56257 L493.567531,547.56257 L493.593095,547.56257 L493.593095,547.614043 L493.593095,549.168581 L493.593095,549.219708 C493.593095,549.246653 493.72264,550.828483 492.711844,552.045513 L492.711844,552.045513 Z M483.152815,555.258572 C483.074397,555.439243 482.893725,555.568788 482.712708,555.568788 C482.661581,555.568788 482.608727,555.568788 482.532036,555.543225 C480.951589,554.946628 480.614427,553.521634 480.63999,552.87391 L480.63999,548.002677 C480.63999,547.743588 480.847953,547.535625 481.107043,547.535625 C481.366132,547.535625 481.57375,547.743588 481.57375,548.002677 L481.57375,552.899819 C481.57375,552.977891 481.522622,554.169358 482.843635,554.661974 C483.125524,554.740392 483.255069,555.025045 483.152815,555.258572 L483.152815,555.258572 Z" id="Page-1"></path>
        </g>
    </g>
</svg>