<?xml version="1.0" encoding="UTF-8" standalone="no"?>
<svg width="20px" height="20px" viewBox="0 0 20 20" version="1.1" xmlns="http://www.w3.org/2000/svg" xmlns:xlink="http://www.w3.org/1999/xlink">
    <defs></defs>
    <g id="Search-Menu" stroke="none" stroke-width="1" fill="none" fill-rule="evenodd">
        <g id="Search-Menu---Front-Page" transform="translate(-475.000000, -588.000000)" fill="#000000">
            <g id="Page-1" transform="translate(475.000000, 588.000000)">
                <path d="M7.9842623,7.86131148 C8.23016393,7.86131148 8.45147541,8.05836066 8.45147541,8.32852459 C8.45147541,8.59901639 8.23016393,8.7704918 7.9842623,8.7704918 C7.73836066,8.7704918 7.51672131,8.57311475 7.51672131,8.30295082 C7.51672131,8.03278689 7.73836066,7.86131148 7.9842623,7.86131148 L7.9842623,7.86131148 Z M7.9842623,7.3695082 C7.46786885,7.3695082 7.02491803,7.78688525 7.02491803,8.32852459 C7.02491803,8.86918033 7.44229508,9.28786885 7.9842623,9.28786885 C8.52459016,9.28786885 8.94327869,8.8704918 8.94327869,8.32852459 C8.94327869,7.78819672 8.52459016,7.3695082 7.9842623,7.3695082 L7.9842623,7.3695082 Z" id="Fill-1"></path>
                <path d="M15.5570492,7.86131148 C15.8029508,7.86131148 16.0245902,8.05836066 16.0245902,8.32852459 C16.0245902,8.59901639 15.8272131,8.7704918 15.5570492,8.7704918 C15.2868852,8.7704918 15.0895082,8.57311475 15.0895082,8.30295082 C15.0895082,8.03278689 15.3111475,7.86131148 15.5570492,7.86131148 L15.5570492,7.86131148 Z M15.5570492,7.3695082 C15.0409836,7.3695082 14.5977049,7.78688525 14.5977049,8.32852459 C14.5977049,8.86918033 15.0154098,9.28786885 15.5570492,9.28786885 C16.0977049,9.28786885 16.5163934,8.8704918 16.5163934,8.32852459 C16.5163934,7.78819672 16.0990164,7.3695082 15.5570492,7.3695082 L15.5570492,7.3695082 Z" id="Fill-2"></path>
                <path d="M19.0740984,5.59803279 L4.56590164,5.59803279 L4.56590164,5.59803279 L0.901639344,5.59803279 C0.484262295,5.59803279 0.163934426,5.91836066 0.163934426,6.3357377 L0.163934426,19.0740984 C0.163934426,19.4914754 0.484262295,19.8118033 0.901639344,19.8118033 L4.54163934,19.8118033 L4.54163934,19.8118033 L19.0498361,19.8118033 C19.4672131,19.8118033 19.787541,19.4914754 19.787541,19.0740984 L19.787541,6.3357377 C19.8118033,5.94262295 19.4672131,5.59803279 19.0740984,5.59803279 L19.0740984,5.59803279 Z M0.901639344,6.3357377 L3.82819672,6.3357377 L3.82819672,19.0740984 L0.901639344,19.0740984 L0.901639344,6.3357377 Z M19.0740984,19.0740984 L4.56590164,19.0740984 L4.56590164,6.3357377 L19.0740984,6.3357377 L19.0740984,19.0740984 Z" id="Fill-3"></path>
                <path d="M8.42590164,5.91836066 L8.42590164,4.24557377 C8.42590164,2.40131148 9.92557377,0.901639344 11.7698361,0.901639344 L11.8927869,0.901639344 C13.7370492,0.901639344 15.2370492,2.40131148 15.2370492,4.24557377 L15.2370492,5.91836066 L15.9747541,5.91836066 L15.9747541,4.24557377 C15.9747541,2.00819672 14.1547541,0.163934426 11.8927869,0.163934426 L11.7698361,0.163934426 C9.53245902,0.163934426 7.68819672,1.98393443 7.68819672,4.24557377 L7.68819672,5.91836066 L8.42590164,5.91836066 Z" id="Fill-4"></path>
                <path d="M4.76163934,5.91836066 L4.76163934,4.24557377 C4.76163934,2.40131148 6.26163934,0.901639344 8.10590164,0.901639344 L8.22885246,0.901639344 C10.0731148,0.901639344 11.5727869,2.40131148 11.5727869,4.24557377 L11.5727869,5.91836066 L12.3104918,5.91836066 L12.3104918,4.24557377 C12.3104918,2.00819672 10.4904918,0.163934426 8.22885246,0.163934426 L8.10590164,0.163934426 C5.86819672,0.163934426 4.02393443,1.98393443 4.02393443,4.24557377 L4.02393443,5.91836066 L4.76163934,5.91836066 Z" id="Fill-5"></path>
            </g>
        </g>
    </g>
</svg>