<?xml version="1.0" encoding="UTF-8" standalone="no"?>
<svg width="18px" height="20px" viewBox="0 0 18 20" version="1.1" xmlns="http://www.w3.org/2000/svg" xmlns:xlink="http://www.w3.org/1999/xlink">
    <defs></defs>
    <g id="Search-Menu" stroke="none" stroke-width="1" fill="none" fill-rule="evenodd">
        <g id="Search-Menu---Front-Page" transform="translate(-476.000000, -635.000000)" fill="#000000">
            <g id="Content" transform="translate(0.000000, -2.000000)">
                <g id="Search-Copy" transform="translate(0.000000, 263.000000)">
                    <g id="Suggetions" transform="translate(454.000000, 129.689977)">
                        <g id="Hover" transform="translate(0.000000, 219.000000)">
                            <g id="Imported-Layers-Copy-2" transform="translate(22.000000, 25.310023)">
                                <path d="M4.13256043,19.7978477 L4.10499513,19.7978477 C3.12121182,19.7978477 2.32070051,18.9977089 2.32070051,18.0124355 L2.32070051,10.188732 C2.32070051,9.54541744 2.03573488,8.92408061 1.5190717,8.43647275 C0.568813754,7.54171792 0.0230952539,6.21895587 0.0230952539,4.80902787 C0.0230952539,2.2190069 1.86103046,0.112123733 4.11952279,0.112123733 C6.37913263,0.112123733 8.21557782,2.2190069 8.21557782,4.80902787 C8.21557782,6.21895587 7.66985932,7.54171792 6.71811136,8.43647275 C6.20144818,8.92408061 5.91648255,9.54541744 5.91648255,10.188732 L5.91648255,18.0124355 C5.91648255,18.9977089 5.11597125,19.7978477 4.13256043,19.7978477 L4.13256043,19.7978477 Z M4.11803277,0.91226253 C2.29909528,0.91226253 0.820626522,2.66154176 0.820626522,4.80902787 C0.820626522,5.99917846 1.27470901,7.10961316 2.0647902,7.85462136 C2.74423767,8.4949559 3.11823178,9.32266 3.11823178,10.188732 L3.11823178,18.0124355 C3.11823178,18.555174 3.56076665,18.9977089 4.10350511,18.9977089 L4.13107042,18.9977089 C4.67380888,18.9977089 5.11597125,18.555174 5.11597125,18.0124355 L5.11597125,10.188732 C5.11597125,9.32266 5.48996536,8.4949559 6.16941283,7.85462136 C6.96135653,7.10961316 7.41506652,5.99917846 7.41506652,4.80902787 C7.41655654,2.66005175 5.93697027,0.91226253 4.11803277,0.91226253 L4.11803277,0.91226253 Z" id="Fill-1"></path>
                                <path d="M13.0637186,19.7978477 L13.0361533,19.7978477 C12.05237,19.7978477 11.2522312,18.9977089 11.2522312,18.0124355 L11.2522312,10.188732 C11.2522312,9.54541744 10.9668931,8.92408061 10.4506024,8.43647275 C9.50034445,7.54171792 8.95462595,6.21895587 8.95462595,4.80902787 C8.95462595,3.72802099 8.95462595,2.38216369 9.7957402,1.44494339 C9.95591696,1.26725893 10.1727143,1.17003536 10.4081369,1.17003536 C10.8551418,1.17003536 11.2201959,1.52354175 11.2362135,1.9642141 L11.5811523,4.53560987 C11.5882299,4.59074047 11.6787484,4.57621281 11.6828459,4.53411985 L12.0363523,1.37938267 C12.0482725,1.00538855 12.3172204,0.67944747 12.685627,0.597869073 C12.7146823,0.592281512 12.7422476,0.587811463 12.7713029,0.587811463 L13.3315491,0.587811463 C13.3606044,0.587811463 13.3896597,0.590791495 13.4175975,0.597869073 C13.7856316,0.67944747 14.0545795,1.00538855 14.0664997,1.37938267 L14.420006,4.53411985 C14.4270836,4.59074047 14.5161121,4.57621281 14.5216997,4.53560987 L14.8666384,1.9642141 C14.8826561,1.52354175 15.2480826,1.17003536 15.6947151,1.17003536 C15.9305101,1.17003536 16.1473075,1.26725893 16.3071118,1.44494339 C17.148226,2.38216369 17.148226,3.72802099 17.148226,4.80902787 C17.148226,6.21895587 16.6025075,7.54171792 15.6526221,8.43647275 C15.1359589,8.92408061 14.8506208,9.54690746 14.8506208,10.188732 L14.8506208,18.0124355 C14.8491308,18.9977089 14.048992,19.7978477 13.0637186,19.7978477 L13.0637186,19.7978477 Z M10.0911359,1.71128381 L10.3880217,1.97874175 C9.79872023,2.63509397 9.75215722,3.60732966 9.75215722,4.80902787 C9.75215722,5.99917846 10.2058672,7.10961316 10.9963209,7.85462136 C11.6757684,8.4949559 12.0497625,9.32266 12.0497625,10.188732 L12.0497625,18.0124355 C12.0497625,18.555174 12.4919248,18.9977089 13.0346633,18.9977089 L13.0622286,18.9977089 C13.6049671,18.9977089 14.0475019,18.555174 14.0475019,18.0124355 L14.0475019,10.188732 C14.0475019,9.32266 14.4214961,8.4949559 15.1009435,7.85462136 C15.8925147,7.10961316 16.3451072,5.99917846 16.3451072,4.80902787 C16.3451072,3.60732966 16.2985442,2.63509397 15.7092427,1.97874175 C15.7092427,1.99624945 15.6611897,2.02977482 15.6582097,2.04728251 L15.3106633,4.64177353 C15.2551602,5.06084064 14.8942038,5.37672411 14.4710391,5.37672411 C14.0314843,5.37672411 13.6690378,5.05339056 13.6209848,4.62426584 L13.2659883,1.45090345 C13.2644983,1.43600329 13.2630083,1.42147563 13.2630083,1.40545795 L13.2659883,1.38832276 L12.8558613,1.38832276 C12.8499013,1.40694797 12.8323936,1.4374933 12.8323936,1.45090345 L12.4773972,4.62426584 C12.4293442,5.05339056 12.0672702,5.37672411 11.6347929,5.37672411 C11.2041782,5.37672411 10.8432217,5.06084064 10.7880911,4.64177353 L10.4401723,2.04728251 C10.4375648,2.02977482 10.4375648,2.01226712 10.4375648,1.99475943 L10.0911359,1.71128381 Z" id="Fill-2"></path>
                                <path d="M4.15155814,7.77304296 C2.8287961,7.77304296 1.75337678,6.48827633 1.75337678,4.90960398 C1.75337678,3.3294416 2.8287961,2.04430248 4.15155814,2.04430248 C4.31732247,2.04430248 4.45105144,2.17840395 4.45105144,2.34416827 C4.45105144,2.50993259 4.31732247,2.64403407 4.15155814,2.64403407 C3.15883473,2.64403407 2.35273587,3.65948023 2.35273587,4.90960398 C2.35273587,6.1578652 3.15883473,7.17368387 4.15155814,7.17368387 C4.31732247,7.17368387 4.45105144,7.30741284 4.45105144,7.47317716 C4.45105144,7.63931399 4.31732247,7.77304296 4.15155814,7.77304296 L4.15155814,7.77304296 Z" id="Fill-3"></path>
                            </g>
                        </g>
                    </g>
                </g>
            </g>
        </g>
    </g>
</svg>