<?xml version="1.0" encoding="UTF-8" standalone="no"?>
<svg width="21px" height="20px" viewBox="0 0 21 20" version="1.1" xmlns="http://www.w3.org/2000/svg" xmlns:xlink="http://www.w3.org/1999/xlink">
    <defs></defs>
    <g id="Search-Menu" stroke="none" stroke-width="1" fill="none" fill-rule="evenodd">
        <g id="Search-Menu---Front-Page" transform="translate(-475.000000, -677.000000)" fill="#000000">
            <g id="Tickets" transform="translate(475.000000, 677.000000)">
                <path d="M7.684,15.3618462 C7.83415385,15.3052308 7.96646154,15.2104615 8.06861538,15.0864615 L14.4830769,7.268 C14.6381538,7.07938462 14.7104615,6.84123077 14.6861538,6.59846154 C14.6621538,6.35569231 14.5455385,6.13692308 14.3569231,5.98184615 L10.4433846,2.77046154 C10.1923077,2.56369231 9.84615385,2.50707692 9.54215385,2.62153846 C9.39169231,2.67784615 9.25969231,2.77292308 9.15753846,2.89661538 L2.74276923,10.7150769 C2.58769231,10.904 2.51569231,11.1418462 2.53969231,11.3846154 C2.56369231,11.6273846 2.68030769,11.8461538 2.86892308,12.0012308 L6.78246154,15.2116923 C7.03353846,15.4193846 7.37969231,15.476 7.684,15.3618462 L7.684,15.3618462 Z M3.27538462,11.1526154 L9.68984615,3.33415385 C9.71630769,3.30276923 9.74892308,3.28 9.78492308,3.26676923 C9.85692308,3.23907692 9.94215385,3.25107692 10.0070769,3.30276923 L13.9206154,6.51323077 C14.0169231,6.59138462 14.0301538,6.73323077 13.952,6.82923077 L7.53723077,14.6476923 C7.51076923,14.6790769 7.47846154,14.7018462 7.44246154,14.7150769 C7.37015385,14.7427692 7.28492308,14.7307692 7.22,14.6790769 L3.30646154,11.4698462 C3.21046154,11.3907692 3.19723077,11.2489231 3.27538462,11.1526154 L3.27538462,11.1526154 Z" id="Fill-1"></path>
                <path d="M7.01323077,10.4313846 L8.29815385,10.1563077 C8.34861538,10.1501538 8.39907692,10.1707692 8.43261538,10.2092308 L9.16707692,11.2741538 C9.22,11.3353846 9.29938462,11.3486154 9.36430769,11.3233846 C9.39292308,11.3126154 9.41815385,11.2944615 9.43876923,11.2704615 C9.45538462,11.2498462 9.46861538,11.2236923 9.47476923,11.1935385 L9.60923077,9.90153846 C9.61415385,9.87630769 9.62492308,9.85323077 9.64184615,9.83415385 C9.65753846,9.81476923 9.67784615,9.79938462 9.70184615,9.78953846 L10.9421538,9.40615385 C10.9710769,9.39415385 10.9938462,9.37630769 11.0107692,9.35569231 C11.0769231,9.27630769 11.0624615,9.14676923 10.9615385,9.08892308 L9.77292308,8.57692308 C9.72830769,8.55169231 9.69938462,8.50615385 9.69476923,8.45538462 L9.71384615,7.14184615 C9.70307692,7.01907692 9.57938462,6.95076923 9.47476923,6.99046154 C9.45446154,6.99753846 9.43507692,7.00953846 9.41692308,7.02646154 L8.56246154,8.01323077 C8.548,8.02646154 8.53138462,8.03723077 8.51323077,8.04338462 C8.48430769,8.05415385 8.45323077,8.05661538 8.42307692,8.04923077 L7.18030769,7.61046154 C7.14430769,7.60215385 7.10830769,7.60584615 7.07815385,7.61661538 C7.048,7.62738462 7.02276923,7.64676923 7.00369231,7.67076923 C6.964,7.72 6.94830769,7.78953846 6.97969231,7.85692308 L7.65261538,8.99046154 C7.67323077,9.03723077 7.67076923,9.09138462 7.64430769,9.13476923 L6.84369231,10.1658462 C6.76676923,10.2895385 6.86769231,10.4483077 7.01323077,10.4313846 L7.01323077,10.4313846 Z" id="Fill-2"></path>
                <path d="M20.3366154,9.79815385 L17.9110769,5.33784615 C17.7741538,5.08523077 17.5095385,4.92307692 17.2212308,4.916 C17.0793846,4.91230769 16.94,4.94584615 16.8147692,5.01323077 C16.6563077,5.09846154 16.4830769,5.14769231 16.3052308,5.16092308 C16.3366154,4.93261538 16.4267692,4.71630769 16.5769231,4.53476923 C16.8581538,4.19230769 16.8076923,3.68523077 16.4652308,3.40369231 L12.56,0.199384615 C12.3390769,0.0181538462 12.0347692,-0.0323076923 11.7667692,0.0686153846 C11.6356923,0.117846154 11.5193846,0.201846154 11.4292308,0.310153846 C11.2886154,0.481846154 11.1046154,0.612923077 10.8990769,0.691076923 C10.4772308,0.849846154 10,0.771692308 9.65138462,0.485538462 C9.43015385,0.304 9.12615385,0.253538462 8.85815385,0.354461538 C8.72707692,0.403692308 8.60923077,0.488 8.52030769,0.596307692 L0.363076923,10.5396923 C0.0818461538,10.8821538 0.132307692,11.3895385 0.474769231,11.6707692 C0.735692308,11.8846154 0.897846154,12.1873846 0.930153846,12.5227692 C0.964,12.8581538 0.864307692,13.1873846 0.650153846,13.4483077 C0.368923077,13.7907692 0.419384615,14.2981538 0.762153846,14.5793846 L2.38338462,15.9098462 L3.916,18.7283077 C4.05292308,18.9809231 4.31723077,19.1430769 4.60584615,19.1501538 C4.74769231,19.1538462 4.88707692,19.1203077 5.012,19.0529231 C5.208,18.9458462 5.428,18.8929231 5.64892308,18.8990769 C6.10215385,18.9110769 6.51692308,19.1646154 6.73323077,19.5612308 C6.87015385,19.8138462 7.13476923,19.976 7.42307692,19.9830769 C7.56492308,19.9867692 7.70430769,19.9532308 7.82923077,19.8858462 L19.1827692,13.7113846 C19.5732308,13.4987692 19.7187692,13.0070769 19.5061538,12.6166154 C19.3436923,12.3184615 19.3076923,11.976 19.4036923,11.6501538 C19.5,11.3246154 19.7163077,11.0566154 20.0144615,10.8953846 C20.4036923,10.6803077 20.5492308,10.1886154 20.3366154,9.79815385 L20.3366154,9.79815385 Z M1.18276923,13.8846154 C1.51323077,13.4818462 1.66707692,12.9735385 1.61661538,12.4553846 C1.56492308,11.9363077 1.31476923,11.4686154 0.912307692,11.1381538 C0.863076923,11.0984615 0.855692308,11.0252308 0.896615385,10.976 L9.05292308,1.03476923 C9.09384615,0.985538462 9.16707692,0.979692308 9.21507692,1.01907692 C9.75230769,1.46030769 10.4916923,1.58184615 11.1418462,1.33661538 C11.4603077,1.21630769 11.744,1.01323077 11.9615385,0.748923077 C12.0012308,0.699384615 12.0756923,0.693538462 12.1236923,0.733230769 L16.0289231,3.93753846 C16.0781538,3.97846154 16.0852308,4.05046154 16.0446154,4.09969231 C15.7138462,4.50246154 15.56,5.01076923 15.6104615,5.52892308 C15.6621538,6.048 15.9123077,6.51569231 16.3147692,6.84615385 C16.3643077,6.88584615 16.3713846,6.95907692 16.3304615,7.00830769 L8.17415385,16.9483077 C8.13476923,16.9975385 8.06,17.0036923 8.012,16.964 C7.47476923,16.5227692 6.73569231,16.4015385 6.08523077,16.6467692 C5.76676923,16.7667692 5.48307692,16.9698462 5.26553846,17.2344615 C5.22584615,17.2836923 5.15138462,17.2895385 5.10338462,17.2498462 L1.19846154,14.0467692 C1.14892308,14.0061538 1.14184615,13.9338462 1.18276923,13.8846154 L1.18276923,13.8846154 Z M16.7907692,11.732 C16.8510769,11.8412308 16.8101538,11.9784615 16.7006154,12.0384615 L10.1886154,15.5793846 L15.4169231,9.20676923 L16.7907692,11.732 Z M19.6815385,10.2849231 C19.2212308,10.5347692 18.8858462,10.9495385 18.7378462,11.452 C18.5901538,11.9544615 18.6455385,12.4843077 18.8953846,12.9446154 C18.9255385,13 18.9049231,13.0707692 18.8498462,13.1009231 L7.49630769,19.2753846 C7.44123077,19.3064615 7.36892308,19.2836923 7.34,19.2295385 C7.00615385,18.6153846 6.36430769,18.2236923 5.66584615,18.2055385 C5.32338462,18.1972308 4.98184615,18.2787692 4.68030769,18.4433846 C4.62492308,18.4747692 4.55292308,18.452 4.524,18.3978462 L3.80646154,17.0781538 L4.66830769,17.7849231 C4.88953846,17.9664615 5.19353846,18.0169231 5.46153846,17.916 C5.59261538,17.8664615 5.70923077,17.7824615 5.79938462,17.6741538 C5.94,17.5036923 6.12369231,17.3713846 6.32923077,17.2932308 C6.75107692,17.1347692 7.22830769,17.2126154 7.57692308,17.4987692 C7.79815385,17.6803077 8.10215385,17.7307692 8.37015385,17.6298462 C8.50123077,17.5806154 8.61784615,17.4963077 8.708,17.3883077 L9.02276923,17.0049231 L17.0323077,12.6489231 C17.2476923,12.5313846 17.4049231,12.3378462 17.4747692,12.1021538 C17.5446154,11.8664615 17.5181538,11.6190769 17.4015385,11.4036923 L15.8941538,8.63230769 L16.8664615,7.44707692 C17.1476923,7.10461538 17.0972308,6.59723077 16.7547692,6.316 C16.5996923,6.18861538 16.4855385,6.02892308 16.4061538,5.85107692 C16.6646154,5.82584615 16.9181538,5.75015385 17.1489231,5.62492308 C17.2043077,5.59384615 17.2763077,5.61661538 17.3052308,5.67076923 L19.7307692,10.1310769 C19.7584615,10.1852308 19.7378462,10.2547692 19.6815385,10.2849231 L19.6815385,10.2849231 Z" id="Fill-3"></path>
            </g>
        </g>
    </g>
</svg>